<svg xmlns="http://www.w3.org/2000/svg" viewBox="0 8.859999656677246 510.9100036621094 37.0099983215332" data-asc="0.9052734375" width="510.9100036621094" height="37.0099983215332"><defs/><g><g fill="#000000"><g transform="translate(0, 0)"><path d="M0 45.26L0 9.47L13.50 9.47Q17.07 9.47 18.95 9.81Q21.58 10.25 23.36 11.49Q25.15 12.72 26.23 14.94Q27.32 17.16 27.32 19.82Q27.32 24.39 24.41 27.55Q21.51 30.71 13.92 30.71L4.74 30.71L4.74 45.26L0 45.26M4.74 26.49L13.99 26.49Q18.58 26.49 20.51 24.78Q22.44 23.07 22.44 19.97Q22.44 17.72 21.30 16.13Q20.17 14.53 18.31 14.01Q17.11 13.70 13.89 13.70L4.74 13.70L4.74 26.49ZM32.81 14.53L32.81 9.47L37.21 9.47L37.21 14.53L32.81 14.53M32.81 45.26L32.81 19.34L37.21 19.34L37.21 45.26L32.81 45.26ZM40.97 45.26L50.44 31.79L41.67 19.34L47.17 19.34L51.15 25.42Q52.27 27.15 52.95 28.32Q54.03 26.71 54.93 25.46L59.30 19.34L64.55 19.34L55.59 31.54L65.23 45.26L59.84 45.26L54.52 37.21L53.10 35.03L46.29 45.26L40.97 45.26ZM86.65 36.91L91.19 37.48Q90.11 41.46 87.21 43.65Q84.30 45.85 79.79 45.85Q74.10 45.85 70.76 42.35Q67.43 38.84 67.43 32.52Q67.43 25.98 70.80 22.36Q74.17 18.75 79.54 18.75Q84.74 18.75 88.04 22.29Q91.33 25.83 91.33 32.25Q91.33 32.64 91.31 33.42L71.97 33.42Q72.22 37.70 74.39 39.97Q76.56 42.24 79.81 42.24Q82.23 42.24 83.94 40.97Q85.64 39.70 86.65 36.91M72.22 29.81L86.69 29.81Q86.40 26.54 85.03 24.90Q82.93 22.36 79.59 22.36Q76.56 22.36 74.50 24.39Q72.44 26.42 72.22 29.81ZM96.61 45.26L96.61 9.47L101.00 9.47L101.00 45.26L96.61 45.26ZM122.27 45.26L122.27 9.47L135.77 9.47Q139.33 9.47 141.21 9.81Q143.85 10.25 145.63 11.49Q147.41 12.72 148.50 14.94Q149.58 17.16 149.58 19.82Q149.58 24.39 146.68 27.55Q143.77 30.71 136.18 30.71L127.00 30.71L127.00 45.26L122.27 45.26M127.00 26.49L136.25 26.49Q140.84 26.49 142.77 24.78Q144.70 23.07 144.70 19.97Q144.70 17.72 143.57 16.13Q142.43 14.53 140.58 14.01Q139.38 13.70 136.16 13.70L127.00 13.70L127.00 26.49ZM172.80 36.91L177.34 37.48Q176.27 41.46 173.36 43.65Q170.46 45.85 165.94 45.85Q160.25 45.85 156.92 42.35Q153.59 38.84 153.59 32.52Q153.59 25.98 156.96 22.36Q160.33 18.75 165.70 18.75Q170.90 18.75 174.19 22.29Q177.49 25.83 177.49 32.25Q177.49 32.64 177.47 33.42L158.13 33.42Q158.37 37.70 160.55 39.97Q162.72 42.24 165.97 42.24Q168.38 42.24 170.09 40.97Q171.80 39.70 172.80 36.91M158.37 29.81L172.85 29.81Q172.56 26.54 171.19 24.90Q169.09 22.36 165.75 22.36Q162.72 22.36 160.66 24.39Q158.59 26.42 158.37 29.81ZM182.81 45.26L182.81 19.34L186.77 19.34L186.77 23.27Q188.28 20.51 189.56 19.63Q190.84 18.75 192.38 18.75Q194.60 18.75 196.90 20.17L195.39 24.24Q193.77 23.29 192.16 23.29Q190.72 23.29 189.58 24.16Q188.43 25.02 187.94 26.56Q187.21 28.91 187.21 31.69L187.21 45.26L182.81 45.26ZM200.56 45.26L200.56 22.75L196.68 22.75L196.68 19.34L200.56 19.34L200.56 16.58Q200.56 13.96 201.03 12.70Q201.66 10.99 203.26 9.92Q204.86 8.86 207.74 8.86Q209.59 8.86 211.84 9.30L211.18 13.13Q209.81 12.89 208.59 12.89Q206.59 12.89 205.76 13.75Q204.93 14.60 204.93 16.94L204.93 19.34L209.99 19.34L209.99 22.75L204.93 22.75L204.93 45.26L200.56 45.26ZM231.15 36.91L235.69 37.48Q234.62 41.46 231.71 43.65Q228.81 45.85 224.29 45.85Q218.60 45.85 215.27 42.35Q211.94 38.84 211.94 32.52Q211.94 25.98 215.31 22.36Q218.68 18.75 224.05 18.75Q229.25 18.75 232.54 22.29Q235.84 25.83 235.84 32.25Q235.84 32.64 235.82 33.42L216.48 33.42Q216.72 37.70 218.90 39.97Q221.07 42.24 224.32 42.24Q226.73 42.24 228.44 40.97Q230.15 39.70 231.15 36.91M216.72 29.81L231.20 29.81Q230.91 26.54 229.54 24.90Q227.44 22.36 224.10 22.36Q221.07 22.36 219.01 24.39Q216.94 26.42 216.72 29.81ZM258.13 35.77L262.45 36.33Q261.74 40.80 258.83 43.32Q255.91 45.85 251.66 45.85Q246.34 45.85 243.10 42.37Q239.87 38.89 239.87 32.40Q239.87 28.20 241.26 25.05Q242.65 21.90 245.50 20.32Q248.34 18.75 251.68 18.75Q255.91 18.75 258.59 20.89Q261.28 23.02 262.04 26.95L257.76 27.61Q257.15 25 255.60 23.68Q254.05 22.36 251.86 22.36Q248.54 22.36 246.46 24.74Q244.38 27.12 244.38 32.28Q244.38 37.50 246.39 39.87Q248.39 42.24 251.61 42.24Q254.20 42.24 255.93 40.65Q257.67 39.06 258.13 35.77ZM275.81 41.33L276.44 45.21Q274.58 45.61 273.12 45.61Q270.73 45.61 269.41 44.85Q268.09 44.09 267.55 42.86Q267.02 41.63 267.02 37.67L267.02 22.75L263.79 22.75L263.79 19.34L267.02 19.34L267.02 12.92L271.39 10.28L271.39 19.34L275.81 19.34L275.81 22.75L271.39 22.75L271.39 37.92Q271.39 39.79 271.62 40.33Q271.85 40.87 272.38 41.19Q272.90 41.50 273.88 41.50Q274.61 41.50 275.81 41.33ZM320.09 32.71L324.83 33.91Q323.34 39.75 319.47 42.81Q315.60 45.87 310.01 45.87Q304.22 45.87 300.60 43.52Q296.97 41.16 295.08 36.69Q293.19 32.23 293.19 27.10Q293.19 21.51 295.32 17.35Q297.46 13.18 301.40 11.02Q305.35 8.86 310.08 8.86Q315.45 8.86 319.12 11.60Q322.78 14.33 324.22 19.29L319.56 20.39Q318.31 16.48 315.94 14.70Q313.57 12.92 309.99 12.92Q305.86 12.92 303.09 14.89Q300.32 16.87 299.19 20.20Q298.07 23.54 298.07 27.08Q298.07 31.64 299.40 35.05Q300.73 38.45 303.54 40.14Q306.35 41.82 309.62 41.82Q313.60 41.82 316.36 39.53Q319.12 37.23 320.09 32.71ZM328.47 32.30Q328.47 25.10 332.47 21.63Q335.82 18.75 340.63 18.75Q345.97 18.75 349.37 22.25Q352.76 25.76 352.76 31.93Q352.76 36.94 351.26 39.81Q349.76 42.68 346.89 44.26Q344.02 45.85 340.63 45.85Q335.18 45.85 331.82 42.36Q328.47 38.87 328.47 32.30M332.98 32.30Q332.98 37.28 335.16 39.76Q337.33 42.24 340.63 42.24Q343.90 42.24 346.07 39.75Q348.24 37.26 348.24 32.15Q348.24 27.34 346.06 24.87Q343.87 22.39 340.63 22.39Q337.33 22.39 335.16 24.85Q332.98 27.32 332.98 32.30ZM357.91 45.26L357.91 19.34L361.87 19.34L361.87 23.02Q364.72 18.75 370.12 18.75Q372.46 18.75 374.43 19.59Q376.39 20.43 377.37 21.80Q378.34 23.17 378.74 25.05Q378.98 26.27 378.98 29.32L378.98 45.26L374.58 45.26L374.58 29.49Q374.58 26.81 374.07 25.48Q373.56 24.15 372.25 23.35Q370.95 22.56 369.19 22.56Q366.38 22.56 364.34 24.34Q362.30 26.12 362.30 31.10L362.30 45.26L357.91 45.26ZM392.92 45.26L383.06 19.34L387.70 19.34L393.26 34.86Q394.17 37.38 394.92 40.09Q395.51 38.04 396.56 35.16L402.32 19.34L406.84 19.34L397.02 45.26L392.92 45.26ZM428.47 36.91L433.01 37.48Q431.93 41.46 429.03 43.65Q426.12 45.85 421.61 45.85Q415.92 45.85 412.59 42.35Q409.25 38.84 409.25 32.52Q409.25 25.98 412.62 22.36Q415.99 18.75 421.36 18.75Q426.56 18.75 429.86 22.29Q433.15 25.83 433.15 32.25Q433.15 32.64 433.13 33.42L413.79 33.42Q414.04 37.70 416.21 39.97Q418.38 42.24 421.63 42.24Q424.05 42.24 425.76 40.97Q427.47 39.70 428.47 36.91M414.04 29.81L428.52 29.81Q428.22 26.54 426.86 24.90Q424.76 22.36 421.41 22.36Q418.38 22.36 416.32 24.39Q414.26 26.42 414.04 29.81ZM438.48 45.26L438.48 19.34L442.43 19.34L442.43 23.27Q443.95 20.51 445.23 19.63Q446.51 18.75 448.05 18.75Q450.27 18.75 452.56 20.17L451.05 24.24Q449.44 23.29 447.83 23.29Q446.39 23.29 445.24 24.16Q444.09 25.02 443.60 26.56Q442.87 28.91 442.87 31.69L442.87 45.26L438.48 45.26ZM464.77 41.33L465.41 45.21Q463.55 45.61 462.08 45.61Q459.69 45.61 458.37 44.85Q457.06 44.09 456.52 42.86Q455.98 41.63 455.98 37.67L455.98 22.75L452.76 22.75L452.76 19.34L455.98 19.34L455.98 12.92L460.35 10.28L460.35 19.34L464.77 19.34L464.77 22.75L460.35 22.75L460.35 37.92Q460.35 39.79 460.58 40.33Q460.82 40.87 461.34 41.19Q461.87 41.50 462.84 41.50Q463.57 41.50 464.77 41.33ZM486.82 36.91L491.36 37.48Q490.28 41.46 487.38 43.65Q484.47 45.85 479.96 45.85Q474.27 45.85 470.94 42.35Q467.60 38.84 467.60 32.52Q467.60 25.98 470.97 22.36Q474.34 18.75 479.71 18.75Q484.91 18.75 488.21 22.29Q491.50 25.83 491.50 32.25Q491.50 32.64 491.48 33.42L472.14 33.42Q472.39 37.70 474.56 39.97Q476.73 42.24 479.98 42.24Q482.40 42.24 484.11 40.97Q485.82 39.70 486.82 36.91M472.39 29.81L486.87 29.81Q486.57 26.54 485.21 24.90Q483.11 22.36 479.76 22.36Q476.73 22.36 474.67 24.39Q472.61 26.42 472.39 29.81ZM496.83 45.26L496.83 19.34L500.78 19.34L500.78 23.27Q502.29 20.51 503.58 19.63Q504.86 18.75 506.40 18.75Q508.62 18.75 510.91 20.17L509.40 24.24Q507.79 23.29 506.18 23.29Q504.74 23.29 503.59 24.16Q502.44 25.02 501.95 26.56Q501.22 28.91 501.22 31.69L501.22 45.26L496.83 45.26Z"/></g></g></g></svg>